<svg width="150" height="28" viewBox="0 0 150 28" fill="none" xmlns="http://www.w3.org/2000/svg">
<path fill-rule="evenodd" clip-rule="evenodd" d="M5.27433 11.8892V9.10673H0V27.4171H5.27433V16.7242C5.27433 15.7374 5.86237 14.8587 6.40085 14.3383C8.3362 12.4818 13.0338 13.1374 13.0338 17.0171V27.4171H18.3081V17.0171C18.3081 12.1145 26.0698 12.1145 26.0698 17.0171V27.4171H31.3171L31.3554 17.1636C31.3554 12.5944 29.1023 8.96028 24.6166 8.96028C21.7642 8.96028 20.5746 9.27571 18.5717 11.2651C18.3658 11.4514 18.1821 11.6608 18.0242 11.8892C17.7989 12.2249 17.7719 12.3781 17.4407 12.6215C14.888 7.82251 8.5953 8.2258 6.21835 10.7875C5.89617 11.1345 5.59201 11.6572 5.27433 11.8892Z" fill="#0071E3"/>
<path fill-rule="evenodd" clip-rule="evenodd" d="M60.2099 16.7242H68.0797C68.0572 11.8036 60.2099 11.4499 60.2099 16.7242ZM54.9355 17.1748V19.3715H68.118C68.118 24.1637 62.6499 24.8171 61.0886 21.8498H55.5213C55.6362 23.2445 57.3801 25.2947 58.3016 25.9549C63.9048 29.9652 73.2436 27.0363 73.2436 19.0674C73.2436 15.7532 72.9665 13.5497 70.5738 11.1818C67.5638 8.21228 61.4851 7.85405 57.6527 11.0826C56.3392 12.2001 54.9355 14.8091 54.9355 17.1636V17.1748Z" fill="#0071E3"/>
<path fill-rule="evenodd" clip-rule="evenodd" d="M77.236 9.10674H74.8928V13.3559H77.2405V21.9963C77.2405 25.3758 79.6309 27.4171 82.8077 27.4171H86.1872V23.1679C81.4919 23.1679 82.3796 23.2107 82.3796 13.3559H86.1963V9.10674H82.3886V4.42044H77.2382L77.236 9.10674Z" fill="#0071E3"/>
<path d="M147.654 18.4072C147.689 17.0632 147.39 15.7315 146.782 14.532C146.24 13.4926 145.409 12.632 144.39 12.0537C143.341 11.4718 142.158 11.1757 140.958 11.1953C139.771 11.1874 138.604 11.4986 137.579 12.0965C136.548 12.6991 135.708 13.5799 135.155 14.6379C134.537 15.8184 134.227 17.1358 134.253 18.4681C134.227 19.8003 134.537 21.1177 135.155 22.2982C135.708 23.3562 136.548 24.237 137.579 24.8396C138.604 25.4375 139.771 25.7487 140.958 25.7408C142.16 25.7606 143.344 25.4588 144.39 24.8667C145.416 24.2688 146.247 23.387 146.782 22.3275C147.385 21.1254 147.684 19.7943 147.654 18.45V18.4072ZM134.262 13.428C134.867 12.1632 135.824 11.0994 137.018 10.3639C138.34 9.55069 139.869 9.13825 141.42 9.17658C142.968 9.14675 144.496 9.53598 145.841 10.3031C147.145 11.0685 148.204 12.1901 148.894 13.5362C149.656 15.0423 150.035 16.713 149.998 18.4005C150.034 20.0937 149.655 21.77 148.894 23.2828C148.203 24.6418 147.138 25.7752 145.825 26.5497C144.489 27.3291 142.967 27.731 141.42 27.7122C139.706 27.7122 138.228 27.3217 136.984 26.5407C135.793 25.818 134.845 24.7556 134.262 23.4901V27.4486H131.987V3.03708H134.262V13.428Z" fill="#0071E3"/>
<path d="M126.71 9.43567V27.4464H124.401V24.2786C123.891 25.3809 123.033 26.2849 121.958 26.8516C120.823 27.4586 119.553 27.7687 118.266 27.7528C116.11 27.7528 114.351 27.0874 112.987 25.7566C111.623 24.4258 110.941 22.4957 110.941 19.9663V9.43567H113.219V19.6937C113.219 21.6463 113.708 23.1416 114.686 24.1795C115.664 25.2174 117 25.7348 118.694 25.7318C120.43 25.7318 121.816 25.1821 122.851 24.0826C123.886 22.9831 124.402 21.3662 124.401 19.2318V9.43567H126.71Z" fill="#0071E3"/>
<path d="M98.8043 9.10673C100.082 9.0869 101.344 9.38089 102.481 9.96288C103.587 10.5528 104.486 11.4682 105.054 12.5854C105.681 13.7615 105.994 15.1967 105.994 16.8909V27.4464H103.718V17.1545C103.718 15.2019 103.229 13.7067 102.251 12.6688C101.274 11.6309 99.9376 11.1142 98.2433 11.1187C96.5055 11.1187 95.1199 11.6684 94.0865 12.7679C93.0531 13.8674 92.5364 15.4835 92.5364 17.6164V27.4464H90.2271V3.03708H92.5364V12.4998C93.1025 11.4264 93.9829 10.5515 95.0598 9.99217C96.2141 9.38758 97.5014 9.08162 98.8043 9.10223" fill="#0071E3"/>
<path fill-rule="evenodd" clip-rule="evenodd" d="M47.3721 16.7242H39.5001C39.5248 11.8036 47.3721 11.4499 47.3721 16.7242ZM52.6465 17.1748V19.3715H39.464C39.464 24.1637 44.9321 24.8171 46.4935 21.8498H52.0607C51.9458 23.2445 50.2019 25.2947 49.2804 25.9549C43.6772 29.9652 34.3384 27.0363 34.3384 19.0674C34.3384 15.7532 34.6155 13.5497 37.0082 11.1818C40.0183 8.21228 46.0969 7.85405 49.9293 11.0826C51.2428 12.2001 52.6465 14.8091 52.6465 17.1636V17.1748Z" fill="#0071E3"/>
<path fill-rule="evenodd" clip-rule="evenodd" d="M64.0896 0C64.7416 0 65.3788 0.193317 65.9209 0.555506C66.4629 0.917695 66.8854 1.43249 67.1349 2.03479C67.3844 2.63708 67.4497 3.29983 67.3225 3.93923C67.1953 4.57863 66.8814 5.16595 66.4204 5.62693C65.9594 6.08791 65.3721 6.40184 64.7327 6.52902C64.0933 6.6562 63.4305 6.59093 62.8282 6.34145C62.2259 6.09197 61.7112 5.66949 61.349 5.12744C60.9868 4.58538 60.7935 3.9481 60.7935 3.29618C60.7935 2.42198 61.1407 1.58358 61.7589 0.965428C62.377 0.347275 63.2154 0 64.0896 0" fill="#0071E3"/>
<path fill-rule="evenodd" clip-rule="evenodd" d="M43.4834 0C44.1354 0 44.7726 0.193317 45.3147 0.555506C45.8567 0.917695 46.2792 1.43249 46.5287 2.03479C46.7782 2.63708 46.8435 3.29983 46.7163 3.93923C46.5891 4.57863 46.2752 5.16595 45.8142 5.62693C45.3532 6.08791 44.7659 6.40184 44.1265 6.52902C43.4871 6.6562 42.8243 6.59093 42.222 6.34145C41.6197 6.09197 41.105 5.66949 40.7428 5.12744C40.3806 4.58538 40.1873 3.9481 40.1873 3.29618C40.1873 2.42198 40.5345 1.58358 41.1527 0.965428C41.7708 0.347275 42.6092 0 43.4834 0" fill="#0071E3"/>
</svg>
